<svg width="41" height="41" viewBox="0 0 41 41" fill="none" xmlns="http://www.w3.org/2000/svg">
<path fill-rule="evenodd" clip-rule="evenodd" d="M21.831 6.77208C25.9894 10.9305 25.9894 17.6726 21.831 21.831C17.6726 25.9894 10.9305 25.9894 6.77208 21.831C2.61369 17.6726 2.61369 10.9305 6.77208 6.77208C10.9305 2.61369 17.6726 2.61369 21.831 6.77208ZM24.7903 23.0356C29.2658 17.6735 28.9865 9.68499 23.9523 4.65076C18.6223 -0.679207 9.98073 -0.679207 4.65076 4.65076C-0.679207 9.98073 -0.679207 18.6223 4.65076 23.9523C9.68498 28.9865 17.6735 29.2658 23.0356 24.7903L38.8671 40.6218L40.6218 38.8671L24.7903 23.0356Z" fill="#171717"/>
</svg>
