<?xml version="1.0" encoding="iso-8859-1"?>
<!-- Uploaded to: SVG Repo, www.svgrepo.com, Generator: SVG Repo Mixer Tools -->
<svg xmlns="http://www.w3.org/2000/svg" xmlns:xlink="http://www.w3.org/1999/xlink" version="1.1" id="Layer_1"  viewBox="0 0 490 490" xml:space="preserve" width="512" height="512">
<g>
	<polygon style="fill:#D4E9F4;" points="122.5,386.458 0,416.458 0,103.542 122.5,73.542  "/>
	<polygon style="fill:#6EADE3;" points="122.5,386.458 245,416.458 245,103.542 122.5,73.542  "/>
	<polygon style="fill:#D4E9F4;" points="367.5,386.458 245,416.458 245,103.542 367.5,73.542  "/>
	<polygon style="fill:#6EADE3;" points="367.5,386.458 490,416.458 490,103.542 367.5,73.542  "/>
	<path style="fill:#836F5A;" d="M304.26,143.944c0,0-22.933-0.472-19.153,17.953c3.78,18.425,14.646,27.402,22.677,20.315   s20.787-7.559,21.732-22.205S314.812,142.055,304.26,143.944z"/>
	<path style="fill:#725B4B;" d="M403.951,395.385c-6.964-16.156,0-34.771,0-34.771s27.422-32.21,31.775-42.657   s-9.576-24.811,2.176-35.257c11.752-10.447,52.097,0,52.097,0v133.758L403.951,395.385z"/>
	<path style="fill:#A5173F;" d="M428.75,144.701c-18.991,0-34.387,15.396-34.387,34.387c0,18.991,34.387,52.377,34.387,52.377   s34.387-33.386,34.387-52.377C463.137,160.096,447.741,144.701,428.75,144.701z M428.75,188.873c-5.81,0-10.519-4.71-10.519-10.519   s4.71-10.519,10.519-10.519c5.81,0,10.519,4.71,10.519,10.519S434.56,188.873,428.75,188.873z"/>
	<path style="fill:#836F5A;" d="M80.276,311.682c-0.696-1.232-27.573-57.723-39.516-44.299   c-11.943,13.424-17.312,83.676-4.336,93.073c12.977,9.397,55.038-5.817,60.408-16.556   C102.202,333.161,92.437,333.205,80.276,311.682z"/>
	<path style="fill:#836F5A;" d="M40.76,93.559c0,0,8.442,52.029,22.806,66.829c14.364,14.799-19.152,64.421,11.752,89.667   c13.836,11.303,31.071,23.558,47.181,33.655V73.542L40.76,93.559z"/>
	<path style="fill:#725B4B;" d="M203.409,93.356L122.5,73.542V283.71c19.874,12.456,38.035,21.625,45.968,21.625   c14.364,0,32.646-75.792,32.646-75.792l-31.775-73.507L203.409,93.356z"/>
	<g>
		<path style="fill:#725B4B;" d="M218.089,305.335c0,0-10.882,31.34-24.375,46.139c-13.494,14.799,4.573,53.545,4.573,53.545    l46.672,11.43V273.062C228.451,288.381,218.089,305.335,218.089,305.335z"/>
		<path style="fill:#836F5A;" d="M339.131,393.406c0,0-13.529-10.157-27.893-30.615c-14.364-20.458,34.822-68.338,20.458-73.997    c-14.364-5.659-23.505-48.751-56.586-35.693c-11.318,4.468-21.565,11.993-30.151,19.96v143.387l0.041,0.01L339.131,393.406z"/>
	</g>
</g>















</svg>